<?xml version="1.0" standalone="no"?>
<!DOCTYPE svg PUBLIC "-//W3C//DTD SVG 20010904//EN"
 "http://www.w3.org/TR/2001/REC-SVG-20010904/DTD/svg10.dtd">
<svg version="1.0" xmlns="http://www.w3.org/2000/svg"
 width="512.000000pt" height="512.000000pt" viewBox="0 0 512.000000 512.000000"
 preserveAspectRatio="xMidYMid meet">
<metadata>
Created by potrace 1.11, written by Peter Selinger 2001-2013
</metadata>
<g transform="translate(0.000000,512.000000) scale(0.100000,-0.100000)"
fill="#000000" stroke="none">
<path d="M3209 4286 c-2 -2 -89 -16 -194 -30 -281 -39 -328 -44 -465 -57 -69
-6 -181 -16 -249 -23 l-125 -11 -58 -90 c-31 -49 -71 -112 -88 -140 -33 -53
-145 -229 -248 -389 -35 -54 -65 -96 -68 -94 -2 2 1 29 6 59 10 59 105 555
115 605 l7 31 -199 6 c-109 3 -281 11 -383 17 -102 6 -210 12 -240 13 l-55 2
-26 -235 c-82 -715 -246 -1662 -485 -2790 -35 -168 -67 -313 -70 -324 -6 -17
-2 -18 47 -11 176 22 602 85 741 108 l71 12 24 125 c31 165 163 838 170 869 9
39 20 6 37 -114 54 -382 117 -814 121 -835 l5 -25 535 0 c294 0 535 3 535 8 0
4 19 -5 42 -19 65 -41 165 -83 252 -106 70 -18 100 -20 250 -16 209 6 334 33
506 109 155 68 267 147 383 268 230 241 336 546 307 887 -15 184 -36 266 -100
394 -86 170 -173 261 -390 405 -246 164 -300 223 -300 329 0 56 19 97 69 149
45 48 141 107 173 107 28 0 62 -32 77 -73 17 -45 13 -164 -9 -256 -11 -46 -19
-85 -17 -87 1 -2 48 10 102 25 210 60 294 84 410 118 66 19 129 37 140 40 11
3 47 14 80 24 l61 19 17 128 c9 70 17 155 17 189 0 225 -112 419 -290 506
-105 51 -176 68 -315 74 -244 11 -514 -57 -782 -197 -401 -209 -656 -514 -704
-842 -24 -165 5 -296 96 -433 78 -118 196 -230 415 -393 220 -165 275 -213
336 -295 51 -69 72 -147 54 -201 -26 -79 -141 -146 -249 -146 -149 1 -393 156
-469 297 -58 108 -43 121 -181 -150 -68 -133 -133 -258 -145 -277 l-20 -35
-44 135 c-141 441 -292 988 -292 1060 0 46 362 575 821 1200 266 362 279 380
260 380 -10 0 -20 -2 -22 -4z"/>
</g>
</svg>
