<?xml version="1.0" standalone="no"?>
<!DOCTYPE svg PUBLIC "-//W3C//DTD SVG 20010904//EN"
 "http://www.w3.org/TR/2001/REC-SVG-20010904/DTD/svg10.dtd">
<svg version="1.0" xmlns="http://www.w3.org/2000/svg"
 width="512.000000pt" height="512.000000pt" viewBox="0 0 512.000000 512.000000"
 preserveAspectRatio="xMidYMid meet">
<metadata>
Created by potrace 1.11, written by Peter Selinger 2001-2013
</metadata>
<g transform="translate(0.000000,512.000000) scale(0.100000,-0.100000)"
fill="#000000" stroke="none">
<path d="M2930 4049 c-80 -6 -159 -18 -230 -36 -8 -3 -22 -6 -30 -7 -8 -2 -26
-8 -40 -14 -14 -5 -45 -18 -70 -28 -51 -21 -196 -99 -216 -117 -7 -7 -48 -41
-92 -77 -43 -36 -94 -84 -112 -107 -18 -24 -37 -40 -44 -36 -6 3 -8 3 -4 -2 4
-4 -7 -28 -25 -54 -45 -65 -97 -152 -97 -162 0 -13 -7 -11 -57 17 -108 60
-237 89 -356 81 -39 -3 -79 -8 -87 -11 -8 -3 -27 -8 -43 -10 -15 -3 -42 -12
-59 -20 -17 -9 -35 -16 -40 -16 -30 0 -238 -169 -238 -194 0 -4 -13 -27 -30
-51 -17 -24 -30 -50 -30 -59 0 -8 -4 -17 -9 -20 -5 -4 -12 -24 -16 -46 -4 -22
-10 -40 -14 -40 -5 0 -6 -12 -3 -26 4 -20 2 -25 -8 -19 -8 5 -11 4 -6 -3 3 -6
8 -50 10 -99 2 -48 7 -97 12 -107 6 -16 4 -18 -14 -14 -12 4 -20 3 -17 -2 3
-4 -10 -11 -29 -14 -18 -4 -61 -20 -95 -36 -34 -17 -64 -30 -67 -30 -10 0 -98
-63 -152 -108 -55 -46 -147 -154 -176 -207 -9 -16 -27 -49 -40 -72 -14 -24
-22 -43 -19 -43 3 0 1 -6 -5 -12 -6 -7 -13 -30 -17 -50 -4 -21 -11 -38 -15
-38 -5 0 -7 -8 -5 -17 1 -10 -1 -27 -5 -38 -35 -94 -21 -359 26 -470 7 -18 10
-35 7 -39 -4 -3 -1 -6 5 -6 7 0 12 -6 12 -14 0 -17 42 -100 53 -104 4 -2 7
-10 7 -18 0 -8 5 -14 10 -14 6 0 10 -5 10 -10 0 -6 9 -20 20 -32 22 -24 27
-44 8 -32 -7 4 -8 3 -4 -5 4 -6 11 -9 16 -6 5 3 23 -8 40 -25 28 -27 30 -33
18 -48 -12 -15 -11 -16 5 -3 15 12 20 11 37 -4 11 -10 17 -22 13 -28 -3 -6 -1
-7 5 -3 13 8 53 -24 46 -36 -3 -4 1 -5 8 -3 8 3 24 -4 36 -15 12 -11 22 -18
22 -15 0 3 9 1 20 -5 11 -6 18 -15 15 -20 -3 -4 5 -6 17 -2 14 3 19 1 14 -6
-5 -8 -2 -10 8 -6 9 3 16 1 16 -6 0 -6 5 -8 11 -5 5 4 20 -1 31 -12 12 -10 18
-12 14 -5 -6 10 -1 10 22 -2 16 -8 32 -12 36 -9 3 4 6 1 6 -6 0 -8 7 -10 19
-6 11 3 22 2 25 -4 3 -5 16 -7 28 -3 11 3 19 1 16 -4 -4 -5 20 -9 52 -8 33 0
57 -2 55 -6 -2 -3 5 -6 15 -6 10 0 17 3 14 7 -6 11 100 5 108 -6 5 -6 8 -5 8
3 0 6 5 12 11 12 5 0 7 -6 3 -13 -6 -9 -4 -9 8 1 13 10 17 10 21 0 4 -10 6
-10 6 0 1 6 6 12 12 12 5 0 7 -6 3 -12 -6 -10 -4 -10 7 0 14 13 33 17 25 4 -2
-4 4 -8 14 -8 10 0 16 4 13 9 -7 12 30 4 39 -8 5 -6 8 -5 8 3 0 6 5 12 11 12
5 0 7 -5 4 -10 -3 -6 -1 -10 4 -10 6 0 11 5 11 10 0 6 5 10 11 10 5 0 7 -6 3
-12 -6 -10 -4 -10 8 0 13 10 17 10 21 0 4 -10 6 -10 6 0 1 6 6 12 12 12 5 0 7
-4 4 -10 -3 -5 -1 -10 4 -10 6 0 11 5 11 10 0 6 5 10 11 10 5 0 7 -5 3 -12 -5
-7 -3 -8 7 -2 19 12 82 11 91 -1 5 -6 8 -5 8 3 0 6 5 12 11 12 5 0 7 -6 3 -12
-5 -9 -2 -9 9 1 11 9 17 10 17 2 0 -6 5 -11 11 -11 5 0 7 5 4 10 -4 7 6 10 29
8 20 -1 36 -6 36 -10 0 -4 5 -8 11 -8 5 0 7 5 4 10 -3 6 -2 10 4 10 5 0 13 -4
16 -10 3 -5 12 -10 18 -10 7 0 6 4 -3 10 -11 7 -3 9 27 7 24 -1 43 -6 43 -11
0 -5 6 -4 13 1 16 13 47 12 47 -1 0 -7 3 -7 8 -1 8 11 114 16 107 6 -2 -4 5
-7 15 -7 10 0 17 3 14 7 -6 11 100 5 108 -6 5 -6 8 -5 8 3 0 6 5 12 11 12 5 0
7 -6 3 -12 -5 -9 -2 -9 9 1 11 9 17 10 17 2 0 -6 5 -11 11 -11 5 0 8 4 5 9 -3
5 5 9 19 9 14 0 23 -3 21 -7 -3 -4 4 -7 14 -7 10 0 17 4 14 8 -2 4 5 6 16 5
11 -1 20 -5 20 -10 0 -5 6 -5 13 0 16 13 47 12 47 -1 0 -7 3 -7 8 -1 8 11 114
16 107 6 -2 -4 5 -7 15 -7 10 0 17 3 15 6 -2 3 23 6 55 6 37 -1 56 -4 52 -11
-3 -5 2 -4 11 4 11 9 17 10 17 2 0 -6 5 -11 11 -11 5 0 7 4 4 10 -3 5 1 10 10
10 9 0 13 -5 9 -11 -5 -8 -1 -8 14 0 24 13 35 14 28 3 -2 -4 4 -8 14 -8 10 0
17 3 15 6 -2 4 9 7 25 7 16 0 27 -3 25 -7 -2 -3 5 -6 15 -6 10 0 17 3 14 7 -6
11 100 5 108 -6 5 -6 8 -5 8 3 0 6 5 12 11 12 5 0 7 -6 3 -12 -5 -9 -2 -9 9 1
14 11 17 11 17 0 0 -9 3 -10 8 -4 8 12 55 19 48 7 -2 -4 4 -8 14 -8 10 0 17 3
15 6 -2 4 9 7 25 7 16 0 27 -3 25 -7 -2 -3 5 -6 15 -6 10 0 17 3 15 6 -2 3 23
6 55 6 37 -1 56 -4 52 -11 -3 -5 2 -4 11 4 11 9 17 10 17 2 0 -6 5 -11 11 -11
5 0 7 5 4 10 -3 6 1 10 10 10 9 0 13 -5 9 -11 -5 -8 -1 -8 14 0 24 13 35 14
28 3 -2 -4 4 -8 14 -8 10 0 17 3 15 6 -2 4 9 7 25 7 16 0 27 -3 25 -7 -2 -3 5
-6 15 -6 10 0 17 3 14 7 -6 11 100 5 108 -6 5 -6 8 -5 8 3 0 6 5 12 11 12 5 0
7 -6 3 -12 -5 -9 -2 -9 9 1 14 11 17 11 17 0 0 -9 3 -10 8 -4 8 12 55 19 48 7
-2 -4 4 -8 14 -8 10 0 17 4 14 8 -2 4 5 6 16 5 11 -1 20 -5 20 -10 0 -5 6 -4
14 2 16 13 37 11 48 -4 5 -6 8 -6 8 1 0 17 41 9 56 -11 8 -10 14 -14 14 -9 0
6 -5 15 -11 21 -9 9 -4 12 19 11 17 -1 29 -4 27 -8 -2 -4 2 -7 10 -7 8 0 11 5
8 10 -4 6 0 8 9 4 9 -3 19 -3 22 1 7 7 26 10 73 14 18 2 33 7 33 12 0 5 3 6 6
3 4 -3 16 -2 27 4 15 8 18 8 12 -1 -4 -7 4 -4 18 5 15 9 32 13 38 9 7 -4 9 -3
6 2 -3 6 8 16 24 23 25 11 33 11 47 -1 15 -12 16 -11 3 5 -12 15 -9 21 12 18
4 0 7 3 7 8 0 5 12 16 26 26 15 9 24 13 21 8 -4 -5 0 -10 8 -10 8 0 12 4 9 9
-3 4 2 15 10 24 9 8 16 13 16 10 0 -8 111 106 127 131 8 13 20 20 26 16 5 -3
7 -1 3 5 -3 6 0 16 7 24 7 7 16 21 20 30 4 11 13 16 24 12 13 -4 15 -3 5 4
-11 7 -10 15 6 41 10 17 21 28 25 25 3 -3 3 4 0 17 -4 15 -3 20 5 15 8 -5 10
-2 6 8 -3 9 -2 16 3 16 5 0 10 6 11 13 1 16 5 31 25 96 9 30 17 64 17 75 0 10
8 28 18 39 9 11 11 17 5 13 -16 -9 -17 18 -2 46 6 11 7 18 2 15 -4 -3 -8 30
-8 73 0 68 2 77 15 67 13 -11 13 -10 0 7 -16 20 -18 30 -22 98 -2 27 -6 48
-11 48 -4 0 -6 3 -5 8 3 10 -21 100 -37 137 -28 65 -44 106 -44 112 1 3 -3 9
-8 12 -5 3 -19 23 -31 44 -29 50 -35 57 -127 151 -44 45 -105 97 -135 117 -51
33 -202 99 -225 99 -5 0 -10 17 -10 37 0 21 5 41 10 45 6 5 6 8 -1 8 -14 0
-14 30 0 30 7 0 6 3 -1 8 -7 5 -13 37 -15 79 -2 39 -6 69 -10 66 -5 -2 -8 7
-8 20 0 14 -7 43 -15 66 -8 22 -11 41 -8 41 4 0 2 5 -5 12 -7 7 -12 18 -12 25
0 13 -34 96 -51 123 -5 8 -13 24 -18 35 -28 63 -124 191 -199 265 -47 47 -85
89 -84 93 2 5 -1 6 -6 3 -5 -3 -18 3 -28 12 -25 24 -156 102 -219 131 -172 80
-355 113 -555 100z m-434 -1131 c-5 9 8 12 54 12 34 0 59 -4 56 -8 -3 -5 1 -9
9 -9 8 0 12 4 9 9 -3 5 7 7 23 5 15 -3 27 -10 26 -16 -2 -6 2 -11 7 -11 6 0
10 6 11 13 0 6 4 3 9 -8 7 -16 9 -17 9 -3 1 14 6 15 36 6 19 -6 32 -15 29 -19
-3 -5 1 -6 9 -3 8 3 18 0 22 -5 3 -6 11 -9 16 -6 5 4 9 1 9 -6 0 -7 3 -9 6 -6
4 4 19 -2 34 -13 16 -11 33 -20 38 -20 5 0 24 -13 42 -30 18 -16 34 -30 36
-30 2 0 13 -8 24 -17 22 -19 27 -38 8 -27 -8 4 -10 3 -5 -2 5 -5 14 -9 20 -9
7 -1 11 -6 10 -13 -2 -6 4 -9 12 -6 9 4 15 1 15 -7 0 -7 9 -23 21 -35 11 -12
21 -31 22 -42 0 -11 4 -19 9 -16 11 7 30 -35 24 -52 -3 -8 -2 -13 3 -10 10 7
33 -52 26 -64 -3 -5 0 -10 6 -12 6 -2 11 -23 12 -46 1 -23 5 -42 10 -42 4 0 7
-41 7 -91 0 -93 -33 -244 -51 -233 -5 3 -6 -2 -3 -10 6 -15 -36 -101 -65 -133
-9 -10 -29 -35 -44 -56 -17 -22 -33 -35 -40 -31 -7 4 -9 4 -5 -1 9 -10 -6 -25
-77 -74 -32 -22 -62 -38 -66 -35 -5 3 -9 1 -9 -4 0 -5 -20 -17 -46 -27 -173
-66 -386 -58 -532 21 -94 50 -118 67 -179 130 -58 59 -68 74 -64 97 1 5 -2 6
-7 3 -5 -3 -21 17 -36 44 -15 28 -24 50 -19 50 4 0 3 4 -2 8 -17 12 -37 81
-30 105 4 15 3 18 -3 9 -7 -10 -11 -7 -15 15 -3 16 0 31 6 35 9 6 8 8 -1 8
-18 0 -15 179 4 215 7 14 9 23 5 20 -5 -3 -7 4 -4 15 3 11 9 17 14 14 5 -3 6
1 4 9 -6 13 40 127 50 127 4 0 3 -5 -1 -12 -4 -6 -3 -8 4 -5 5 4 8 15 6 25 -3
9 6 28 18 42 13 14 36 42 51 63 15 20 35 37 44 37 9 0 14 3 10 6 -16 16 153
125 184 119 11 -2 17 0 14 6 -4 5 -4 9 -1 9 2 0 12 3 20 6 13 5 15 2 9 -12 -5
-15 -2 -14 13 4 12 14 34 25 59 28 21 2 41 7 44 9 2 3 11 -1 19 -8 13 -9 14
-9 8 1z"/>
<path d="M2436 2887 c3 -10 9 -15 12 -12 3 3 0 11 -7 18 -10 9 -11 8 -5 -6z"/>
<path d="M2736 2878 c3 -5 10 -6 15 -3 13 9 11 12 -6 12 -8 0 -12 -4 -9 -9z"/>
<path d="M2550 2860 c0 -5 5 -10 11 -10 5 0 7 5 4 10 -3 6 -8 10 -11 10 -2 0
-4 -4 -4 -10z"/>
<path d="M2275 2851 c-3 -5 -2 -12 3 -15 5 -3 9 1 9 9 0 17 -3 19 -12 6z"/>
<path d="M2595 2840 c-3 -5 -1 -10 4 -10 6 0 11 5 11 10 0 6 -2 10 -4 10 -3 0
-8 -4 -11 -10z"/>
<path d="M2230 2816 c0 -2 8 -10 18 -17 15 -13 16 -12 3 4 -13 16 -21 21 -21
13z"/>
<path d="M2160 2780 c-9 -6 -10 -10 -3 -10 6 0 15 5 18 10 8 12 4 12 -15 0z"/>
<path d="M2210 2780 c0 -5 5 -10 11 -10 5 0 7 5 4 10 -3 6 -8 10 -11 10 -2 0
-4 -4 -4 -10z"/>
<path d="M2975 2740 c3 -5 8 -10 11 -10 2 0 4 5 4 10 0 6 -5 10 -11 10 -5 0
-7 -4 -4 -10z"/>
<path d="M2110 2676 c0 -2 8 -10 18 -17 15 -13 16 -12 3 4 -13 16 -21 21 -21
13z"/>
<path d="M2850 2533 c-8 -3 -102 -93 -209 -199 -106 -107 -198 -191 -204 -187
-6 3 -7 1 -3 -5 4 -7 4 -12 -1 -12 -12 0 -148 143 -145 152 1 4 -1 7 -6 6 -4
-2 -21 9 -37 25 -39 36 -55 34 -104 -10 -47 -42 -48 -69 -6 -113 14 -14 22
-30 18 -34 -5 -4 -3 -6 3 -4 15 4 125 -103 117 -115 -3 -6 -2 -7 4 -4 10 7 59
-43 55 -56 -1 -4 1 -6 5 -5 11 4 63 -43 58 -51 -8 -14 50 -10 72 4 13 9 28 13
33 10 5 -3 8 0 5 7 -3 7 6 26 20 42 14 16 25 26 25 21 0 -4 10 5 22 21 12 16
31 35 41 43 11 7 31 26 45 42 13 16 28 26 33 24 4 -3 11 0 15 6 4 8 3 9 -4 5
-19 -11 -14 2 8 24 22 22 35 27 24 8 -4 -7 -3 -8 5 -4 6 4 9 11 6 15 -7 12
126 141 138 134 6 -3 7 -1 3 5 -8 13 41 65 55 57 5 -3 6 1 3 9 -3 9 -2 16 4
16 15 0 21 35 10 55 -14 23 -71 75 -83 74 -5 0 -17 -3 -25 -6z"/>
<path d="M2846 2282 c-3 -5 1 -9 9 -9 8 0 12 4 9 9 -3 4 -7 8 -9 8 -2 0 -6 -4
-9 -8z"/>
<path d="M2835 2169 c-4 -6 -5 -12 -2 -15 2 -3 7 2 10 11 7 17 1 20 -8 4z"/>
<path d="M2660 2080 c-9 -6 -10 -10 -3 -10 6 0 15 5 18 10 8 12 4 12 -15 0z"/>
<path d="M2606 2042 c-3 -5 1 -9 9 -9 8 0 12 4 9 9 -3 4 -7 8 -9 8 -2 0 -6 -4
-9 -8z"/>
<path d="M280 1920 c-9 -6 -10 -10 -3 -10 6 0 15 5 18 10 8 12 4 12 -15 0z"/>
<path d="M306 1722 c-3 -5 1 -9 9 -9 8 0 12 4 9 9 -3 4 -7 8 -9 8 -2 0 -6 -4
-9 -8z"/>
<path d="M4795 1711 c-3 -5 -2 -12 3 -15 5 -3 9 1 9 9 0 17 -3 19 -12 6z"/>
<path d="M4716 1473 c-6 -14 -5 -15 5 -6 7 7 10 15 7 18 -3 3 -9 -2 -12 -12z"/>
<path d="M502 1324 c10 -10 20 -16 22 -13 3 3 -5 11 -17 18 -21 13 -21 12 -5
-5z"/>
<path d="M4493 1225 c0 -8 4 -12 9 -9 5 3 6 10 3 15 -9 13 -12 11 -12 -6z"/>
<path d="M614 1216 c1 -8 5 -18 8 -22 4 -3 5 1 4 10 -1 8 -5 18 -8 22 -4 3 -5
-1 -4 -10z"/>
<path d="M4390 1126 c0 -2 7 -7 16 -10 8 -3 12 -2 9 4 -6 10 -25 14 -25 6z"/>
<path d="M815 1100 c3 -5 8 -10 11 -10 2 0 4 5 4 10 0 6 -5 10 -11 10 -5 0 -7
-4 -4 -10z"/>
<path d="M4336 1101 c-3 -5 2 -15 12 -22 15 -12 16 -12 5 2 -7 9 -10 19 -6 22
3 4 4 7 0 7 -3 0 -8 -4 -11 -9z"/>
<path d="M4095 1060 c-3 -6 1 -7 9 -4 18 7 21 14 7 14 -6 0 -13 -4 -16 -10z"/>
<path d="M1455 1031 c-3 -5 -2 -12 3 -15 5 -3 9 1 9 9 0 17 -3 19 -12 6z"/>
<path d="M1933 1025 c0 -8 4 -12 9 -9 5 3 6 10 3 15 -9 13 -12 11 -12 -6z"/>
<path d="M2295 1031 c-3 -5 -2 -12 3 -15 5 -3 9 1 9 9 0 17 -3 19 -12 6z"/>
<path d="M2413 1025 c0 -8 4 -12 9 -9 5 3 6 10 3 15 -9 13 -12 11 -12 -6z"/>
<path d="M2773 1025 c0 -8 4 -12 9 -9 5 3 6 10 3 15 -9 13 -12 11 -12 -6z"/>
<path d="M3413 1025 c0 -8 4 -12 9 -9 5 3 6 10 3 15 -9 13 -12 11 -12 -6z"/>
<path d="M3853 1025 c0 -8 4 -12 9 -9 5 3 6 10 3 15 -9 13 -12 11 -12 -6z"/>
<path d="M1056 1018 c3 -4 11 -5 19 -1 21 7 19 12 -4 10 -11 0 -18 -5 -15 -9z"/>
<path d="M1535 1020 c3 -5 8 -10 11 -10 2 0 4 5 4 10 0 6 -5 10 -11 10 -5 0
-7 -4 -4 -10z"/>
<path d="M1575 1020 c3 -5 8 -10 11 -10 2 0 4 5 4 10 0 6 -5 10 -11 10 -5 0
-7 -4 -4 -10z"/>
<path d="M1970 1019 c0 -5 5 -7 10 -4 6 3 10 8 10 11 0 2 -4 4 -10 4 -5 0 -10
-5 -10 -11z"/>
<path d="M2090 1020 c0 -5 5 -10 11 -10 5 0 7 5 4 10 -3 6 -8 10 -11 10 -2 0
-4 -4 -4 -10z"/>
<path d="M2255 1020 c3 -5 8 -10 11 -10 2 0 4 5 4 10 0 6 -5 10 -11 10 -5 0
-7 -4 -4 -10z"/>
<path d="M2450 1019 c0 -5 5 -7 10 -4 6 3 10 8 10 11 0 2 -4 4 -10 4 -5 0 -10
-5 -10 -11z"/>
<path d="M2570 1020 c0 -5 5 -10 11 -10 5 0 7 5 4 10 -3 6 -8 10 -11 10 -2 0
-4 -4 -4 -10z"/>
<path d="M2890 1020 c0 -5 5 -10 11 -10 5 0 7 5 4 10 -3 6 -8 10 -11 10 -2 0
-4 -4 -4 -10z"/>
<path d="M3210 1020 c0 -5 5 -10 11 -10 5 0 7 5 4 10 -3 6 -8 10 -11 10 -2 0
-4 -4 -4 -10z"/>
<path d="M3530 1020 c0 -5 5 -10 11 -10 5 0 7 5 4 10 -3 6 -8 10 -11 10 -2 0
-4 -4 -4 -10z"/>
<path d="M3890 1019 c0 -5 5 -7 10 -4 6 3 10 8 10 11 0 2 -4 4 -10 4 -5 0 -10
-5 -10 -11z"/>
<path d="M3115 1009 c-4 -6 -5 -12 -2 -15 2 -3 7 2 10 11 7 17 1 20 -8 4z"/>
<path d="M3755 1009 c-4 -6 -5 -12 -2 -15 2 -3 7 2 10 11 7 17 1 20 -8 4z"/>
</g>
</svg>
