<?xml version="1.0" standalone="no"?>
<!DOCTYPE svg PUBLIC "-//W3C//DTD SVG 20010904//EN"
 "http://www.w3.org/TR/2001/REC-SVG-20010904/DTD/svg10.dtd">
<svg version="1.0" xmlns="http://www.w3.org/2000/svg"
 width="512.000000pt" height="512.000000pt" viewBox="0 0 512.000000 512.000000"
 preserveAspectRatio="xMidYMid meet">
<metadata>
Created by potrace 1.11, written by Peter Selinger 2001-2013
</metadata>
<g transform="translate(0.000000,512.000000) scale(0.100000,-0.100000)"
fill="#000000" stroke="none">
<path d="M3557 4765 c-162 -36 -336 -114 -462 -207 -79 -59 -913 -883 -904
-893 4 -3 32 -2 63 3 58 9 248 -6 348 -27 57 -12 206 -69 213 -82 18 -27 60 7
287 230 340 334 385 369 506 400 23 6 59 16 81 21 122 32 295 -26 402 -134 90
-90 129 -191 129 -333 0 -74 -5 -106 -26 -165 -52 -145 -66 -160 -684 -773
-382 -380 -405 -400 -479 -441 -92 -50 -165 -68 -271 -69 -135 0 -237 40 -348
136 -51 45 -95 59 -185 59 -98 0 -149 -21 -206 -86 -74 -85 -93 -206 -46 -301
61 -121 268 -270 457 -328 124 -39 165 -44 323 -44 150 0 196 5 315 37 115 31
252 100 369 186 100 73 1079 1055 1143 1146 109 157 175 329 202 527 18 131
14 201 -20 361 -82 383 -404 692 -809 777 -85 18 -315 18 -398 0z"/>
<path d="M2239 3376 c-3 -3 -34 -10 -69 -15 -84 -14 -207 -53 -290 -93 -173
-84 -207 -113 -765 -672 -560 -560 -598 -603 -675 -769 -81 -172 -105 -283
-105 -482 0 -114 5 -169 19 -230 64 -262 221 -485 442 -628 107 -70 222 -117
359 -148 79 -18 342 -19 410 -1 28 7 68 18 90 24 108 28 256 99 355 169 109
77 934 898 918 914 -2 2 -37 -1 -78 -6 -155 -22 -411 24 -535 97 l-40 23 -136
-132 c-75 -73 -204 -197 -286 -277 -207 -199 -294 -248 -462 -258 -100 -6
-175 9 -253 50 -104 55 -179 146 -219 265 -18 54 -20 81 -17 161 5 107 27 179
80 271 38 64 992 1028 1068 1078 59 39 146 71 240 87 137 24 255 -9 386 -109
94 -72 127 -85 221 -85 68 0 85 4 129 30 102 58 148 141 142 255 -5 99 -46
166 -158 257 -143 116 -302 185 -489 213 -90 14 -272 20 -282 11z"/>
</g>
</svg>
